HIERARCHY
ROOT joint_Root
{
	OFFSET 0.0 0.0 0.0
	CHANNELS 6 Xposition Yposition Zposition Zrotation Xrotation Yrotation 
	JOINT Hips
	{
		OFFSET -17.1583 93.1646 452.98
		CHANNELS 6 Xposition Yposition Zposition Zrotation Xrotation Yrotation 
		JOINT Spine
		{
			OFFSET 15.7357 0.0 0.0
			CHANNELS 6 Xposition Yposition Zposition Zrotation Xrotation Yrotation 
			JOINT Chest
			{
				OFFSET 8.98455 -0.406207 0.0
				CHANNELS 6 Xposition Yposition Zposition Zrotation Xrotation Yrotation 
				JOINT Neck
				{
					OFFSET 16.3773 0.0 0.0
					CHANNELS 6 Xposition Yposition Zposition Zrotation Xrotation Yrotation 
					JOINT Head
					{
						OFFSET 6.45672 0.0 0.0
						CHANNELS 6 Xposition Yposition Zposition Zrotation Xrotation Yrotation 
						End Site
						{
							OFFSET 0.0 0.0 0.0
						}
					}
				}
				JOINT Shoulder_L
				{
					OFFSET 12.9942 -0.242716 4.98039
					CHANNELS 6 Xposition Yposition Zposition Zrotation Xrotation Yrotation 
					JOINT UpperArm_L
					{
						OFFSET 5.34809 0.0 0.0
						CHANNELS 6 Xposition Yposition Zposition Zrotation Xrotation Yrotation 
						JOINT LowerArm_L
						{
							OFFSET 24.3286 1.87007e-05 0.0
							CHANNELS 6 Xposition Yposition Zposition Zrotation Xrotation Yrotation 
							JOINT Hand_L
							{
								OFFSET 22.2916 0.0 0.0
								CHANNELS 6 Xposition Yposition Zposition Zrotation Xrotation Yrotation 
								End Site
								{
									OFFSET 0.0 0.0 0.0
								}
							}
						}
					}
				}
				JOINT Shoulder_R
				{
					OFFSET 12.9945 -0.242716 -4.98039
					CHANNELS 6 Xposition Yposition Zposition Zrotation Xrotation Yrotation 
					JOINT UpperArm_R
					{
						OFFSET -5.34813 0.0 0.0
						CHANNELS 6 Xposition Yposition Zposition Zrotation Xrotation Yrotation 
						JOINT LowerArm_R
						{
							OFFSET -24.3289 0.000322201 0.0
							CHANNELS 6 Xposition Yposition Zposition Zrotation Xrotation Yrotation 
							JOINT Hand_R
							{
								OFFSET -22.2915 -0.000108084 0.0
								CHANNELS 6 Xposition Yposition Zposition Zrotation Xrotation Yrotation 
								End Site
								{
									OFFSET 0.0 0.0 0.0
								}
							}
						}
					}
				}
			}
		}
		JOINT UpperLeg_L
		{
			OFFSET -2.19248 -6.46944 0.0
			CHANNELS 6 Xposition Yposition Zposition Zrotation Xrotation Yrotation 
			JOINT LowerLeg_L
			{
				OFFSET 39.0811 0.0 -1.23785e-05
				CHANNELS 6 Xposition Yposition Zposition Zrotation Xrotation Yrotation 
				JOINT Foot_L
				{
					OFFSET 40.9854 0.0 -1.26872e-05
					CHANNELS 6 Xposition Yposition Zposition Zrotation Xrotation Yrotation 
					JOINT Toes_L
					{
						OFFSET 11.7543 0.0 0.0
						CHANNELS 6 Xposition Yposition Zposition Zrotation Xrotation Yrotation 
						End Site
						{
							OFFSET 0.0 0.0 0.0
						}
					}
				}
			}
		}
		JOINT UpperLeg_R
		{
			OFFSET -2.19251 6.46944 0.0
			CHANNELS 6 Xposition Yposition Zposition Zrotation Xrotation Yrotation 
			JOINT LowerLeg_R
			{
				OFFSET -39.0811 -0.00228153 -0.0401928
				CHANNELS 6 Xposition Yposition Zposition Zrotation Xrotation Yrotation 
				JOINT Foot_R
				{
					OFFSET -40.9854 0.0 0.0
					CHANNELS 6 Xposition Yposition Zposition Zrotation Xrotation Yrotation 
					JOINT Toes_R
					{
						OFFSET -11.7543 0.0 0.0
						CHANNELS 6 Xposition Yposition Zposition Zrotation Xrotation Yrotation 
						End Site
						{
							OFFSET 0.0 0.0 0.0
						}
					}
				}
			}
		}
	}
}
MOTION
Frames:	8
Frame Time:	0.0333333
0.000000 0.000000 0.000000 0.000000 0.000000 -0.000000 -0.509413 92.575700 2.657890 86.254900 -4.065110 5.233880 15.735700 0.000005 -0.000001 97.349300 86.730800 -103.878000 8.984550 -0.406207 -0.000000 -1.171280 1.343890 -13.039100 16.377300 -0.000001 -0.000001 0.467351 -0.936378 -6.014030 6.456720 -0.000001 -0.000000 2.511180 2.077260 -16.551200 12.994200 -0.242716 4.980390 -92.861500 9.405240 -72.992500 5.348090 -0.000007 -0.000001 -56.476700 1.547760 3.395950 24.328600 0.000019 0.000005 12.476800 26.508000 -26.370400 22.291600 -0.000001 0.000005 1.736660 4.863170 10.104700 12.994500 -0.242716 -4.980390 94.109100 -8.043840 -62.824100 -5.348130 -0.000001 -0.000004 -32.476300 -62.904000 -72.022700 -24.328900 0.000322 -0.000009 -0.610725 -3.114070 -11.083200 -22.291500 -0.000108 -0.000004 44.430200 5.513020 -7.067690 -2.192480 -6.469440 -0.000000 -171.715000 -7.130510 4.043730 39.081100 -0.000007 -0.000012 0.014877 -0.042961 19.101400 40.985400 -0.000006 -0.000013 -0.048915 10.151800 -71.137900 11.754300 -0.000000 0.000003 -0.002155 0.198266 -8.532770 -2.192510 6.469440 -0.000001 177.847000 5.718390 -173.664000 -39.081100 -0.002282 -0.040193 -0.020594 0.103525 13.014100 -40.985400 0.000008 0.000006 -8.321550 9.843240 -67.691600 -11.754300 -0.000006 -0.000006 -0.010891 0.277848 -5.283300
0.000000 0.000000 0.000000 0.000000 0.000000 -0.000000 -0.475496 92.597000 2.606050 86.304700 -3.936250 5.181480 15.735700 0.000005 -0.000001 97.209500 86.713700 -103.728000 8.984550 -0.406207 -0.000000 -1.136330 1.329600 -13.019700 16.377300 -0.000001 -0.000001 0.522170 -0.974167 -5.971890 6.456720 -0.000001 -0.000000 2.485070 2.023090 -16.523200 12.994200 -0.242716 4.980390 -92.854600 9.396670 -73.017200 5.348090 -0.000007 -0.000001 -56.401000 1.227160 3.234390 24.328600 0.000019 0.000005 12.517300 26.419300 -26.517800 22.291600 -0.000001 0.000005 1.991960 4.862370 10.120300 12.994500 -0.242716 -4.980390 94.100300 -8.024050 -62.817100 -5.348130 -0.000001 -0.000004 -32.769900 -62.840000 -72.214000 -24.328900 0.000322 -0.000009 -0.570424 -2.996460 -10.764200 -22.291500 -0.000108 -0.000004 44.223900 5.507720 -6.847690 -2.192480 -6.469440 -0.000000 -171.798000 -7.110780 3.975710 39.081100 -0.000007 -0.000012 0.015088 -0.043816 19.001600 40.985400 -0.000006 -0.000013 -0.031653 10.196000 -71.114400 11.754300 -0.000000 0.000003 -0.002524 0.202719 -8.351620 -2.192510 6.469440 -0.000001 177.775000 5.777080 -173.688000 -39.081100 -0.002282 -0.040193 -0.020743 0.105198 12.891200 -40.985400 0.000008 0.000006 -8.481220 9.794650 -67.607100 -11.754300 -0.000006 -0.000006 -0.010982 0.278502 -5.256520
0.000000 0.000000 0.000000 0.000000 0.000000 -0.000000 -0.470439 92.601800 2.564460 86.318600 -3.803980 5.149610 15.735700 0.000005 -0.000001 96.911400 86.687000 -103.416000 8.984550 -0.406207 -0.000000 -1.081200 1.297860 -12.991600 16.377300 -0.000001 -0.000001 0.549424 -1.036610 -5.900220 6.456720 -0.000001 -0.000000 2.489650 1.964650 -16.416900 12.994200 -0.242716 4.980390 -92.842800 9.358830 -73.019200 5.348090 -0.000007 -0.000001 -56.361800 1.075340 3.068710 24.328600 0.000019 0.000005 12.481600 26.259000 -26.579800 22.291600 -0.000001 0.000005 2.181290 4.863660 10.095200 12.994500 -0.242716 -4.980390 94.083700 -8.001590 -62.847200 -5.348130 -0.000001 -0.000004 -32.808300 -62.763400 -72.094800 -24.328900 0.000322 -0.000009 -0.600823 -3.222760 -10.548400 -22.291500 -0.000108 -0.000004 44.226900 5.503820 -6.688160 -2.192480 -6.469440 -0.000000 -171.817000 -7.048030 3.874820 39.081100 -0.000007 -0.000012 0.014055 -0.040801 19.007700 40.985400 -0.000006 -0.000013 -0.008695 10.310300 -71.028500 11.754300 -0.000000 0.000003 -0.002266 0.199623 -8.477580 -2.192510 6.469440 -0.000001 177.781000 5.809350 -173.729000 -39.081100 -0.002282 -0.040193 -0.020290 0.103403 12.869300 -40.985400 0.000008 0.000006 -8.418090 9.687970 -67.573300 -11.754300 -0.000006 -0.000006 -0.010573 0.275537 -5.377860
0.000000 0.000000 0.000000 0.000000 0.000000 -0.000000 -0.461588 92.618500 2.523930 86.340500 -3.760920 5.050650 15.735700 0.000005 -0.000001 96.931000 86.697900 -103.416000 8.984550 -0.406207 -0.000000 -1.103680 1.297300 -12.953700 16.377300 -0.000001 -0.000001 0.580623 -1.102490 -5.849210 6.456720 -0.000001 -0.000000 2.514690 1.868010 -16.306100 12.994200 -0.242716 4.980390 -92.845300 9.357900 -73.003600 5.348090 -0.000007 -0.000001 -56.289600 1.129600 3.030640 24.328600 0.000019 0.000005 12.589300 26.263900 -26.779700 22.291600 -0.000001 0.000005 2.194980 4.859370 10.178900 12.994500 -0.242716 -4.980390 94.039500 -7.935810 -62.910200 -5.348130 -0.000001 -0.000004 -32.810300 -62.693400 -71.935700 -24.328900 0.000322 -0.000009 -0.619361 -3.332360 -10.517900 -22.291500 -0.000108 -0.000004 44.227900 5.501940 -6.612070 -2.192480 -6.469440 -0.000000 -171.863000 -7.045410 3.779780 39.081100 -0.000007 -0.000012 0.014284 -0.041655 18.927200 40.985400 -0.000006 -0.000013 -0.015617 10.302000 -71.016600 11.754300 -0.000000 0.000003 -0.002243 0.199345 -8.488870 -2.192510 6.469440 -0.000001 177.762000 5.828240 -173.803000 -39.081100 -0.002282 -0.040193 -0.020112 0.103465 12.768000 -40.985400 0.000008 0.000006 -8.497570 9.656200 -67.524900 -11.754300 -0.000006 -0.000006 -0.010827 0.277384 -5.302270
0.000000 0.000000 0.000000 0.000000 0.000000 -0.000000 -0.474437 92.620500 2.511130 86.367000 -3.697470 5.039220 15.735700 0.000005 -0.000001 96.816100 86.675600 -103.277000 8.984550 -0.406207 -0.000000 -1.059000 1.285060 -12.905700 16.377300 -0.000001 -0.000001 0.595963 -1.151630 -5.743580 6.456720 -0.000001 -0.000000 2.534290 1.775560 -16.315500 12.994200 -0.242716 4.980390 -92.850500 9.390230 -73.029400 5.348090 -0.000007 -0.000001 -56.231900 1.229620 3.015450 24.328600 0.000019 0.000005 12.605800 26.218600 -26.847800 22.291600 -0.000001 0.000005 2.136760 4.862020 10.127200 12.994500 -0.242716 -4.980390 94.012600 -7.876870 -62.893800 -5.348130 -0.000001 -0.000004 -33.052500 -62.584800 -71.961200 -24.328900 0.000322 -0.000009 -0.608694 -3.245820 -10.609500 -22.291500 -0.000108 -0.000004 44.160800 5.501830 -6.607230 -2.192480 -6.469440 -0.000000 -171.873000 -7.058230 3.755200 39.081100 -0.000007 -0.000012 0.012696 -0.037075 18.903300 40.985400 -0.000006 -0.000013 -0.013591 10.379000 -70.977100 11.754300 -0.000000 0.000003 -0.002288 0.199891 -8.466670 -2.192510 6.469440 -0.000001 177.759000 5.874550 -173.831000 -39.081100 -0.002282 -0.040193 -0.019456 0.100321 12.798500 -40.985400 0.000008 0.000006 -8.383630 9.602780 -67.574100 -11.754300 -0.000006 -0.000006 -0.011129 0.279554 -5.213460
0.000000 0.000000 0.000000 0.000000 0.000000 -0.000000 -0.506181 92.637000 2.477610 86.362000 -3.667690 4.973970 15.735700 0.000005 -0.000001 96.368700 86.672600 -102.797000 8.984550 -0.406207 -0.000000 -1.050710 1.231230 -12.841300 16.377300 -0.000001 -0.000001 0.597530 -1.210990 -5.616810 6.456720 -0.000001 -0.000000 2.492870 1.732610 -16.275500 12.994200 -0.242716 4.980390 -92.855400 9.376740 -72.978600 5.348090 -0.000007 -0.000001 -56.244400 1.453790 2.968560 24.328600 0.000019 0.000005 12.585300 26.236100 -26.794800 22.291600 -0.000001 0.000005 2.009600 4.861820 10.131200 12.994500 -0.242716 -4.980390 93.973800 -7.807440 -62.915900 -5.348130 -0.000001 -0.000004 -33.232500 -62.482200 -71.853400 -24.328900 0.000322 -0.000009 -0.620217 -3.229010 -10.860800 -22.291500 -0.000108 -0.000004 43.996500 5.500100 -6.537880 -2.192480 -6.469440 -0.000000 -171.887000 -6.947650 3.707600 39.081100 -0.000007 -0.000012 0.013715 -0.040265 18.809900 40.985400 -0.000006 -0.000013 -0.064158 10.266000 -70.936300 11.754300 -0.000000 0.000003 -0.002254 0.199481 -8.483360 -2.192510 6.469440 -0.000001 177.815000 5.821970 -173.845000 -39.081100 -0.002282 -0.040193 -0.019503 0.101798 12.644400 -40.985400 0.000008 0.000006 -8.356070 9.485120 -67.454700 -11.754300 -0.000006 -0.000006 -0.010777 0.277024 -5.317030
0.000000 0.000000 0.000000 0.000000 0.000000 -0.000000 -0.545195 92.638200 2.455420 86.324600 -3.678860 4.907990 15.735700 0.000005 -0.000001 96.538300 86.663900 -102.935000 8.984550 -0.406207 -0.000000 -1.035260 1.249460 -12.776900 16.377300 -0.000001 -0.000001 0.572005 -1.295170 -5.415890 6.456720 -0.000001 -0.000000 2.553580 1.655750 -16.154900 12.994200 -0.242716 4.980390 -92.819600 9.285710 -73.026300 5.348090 -0.000007 -0.000001 -56.391100 1.523910 2.954650 24.328600 0.000019 0.000005 12.531700 26.248800 -26.683000 22.291600 -0.000001 0.000005 1.930740 4.861200 10.143000 12.994500 -0.242716 -4.980390 93.930900 -7.732290 -62.945300 -5.348130 -0.000001 -0.000004 -33.031600 -62.377800 -71.290900 -24.328900 0.000322 -0.000009 -0.623046 -3.143790 -11.197700 -22.291500 -0.000108 -0.000004 44.074200 5.494390 -6.310220 -2.192480 -6.469440 -0.000000 -171.836000 -6.917270 3.602930 39.081100 -0.000007 -0.000012 0.013415 -0.039292 18.851300 40.985400 -0.000006 -0.000013 -0.097706 10.243600 -70.933000 11.754300 -0.000000 0.000003 -0.002247 0.199392 -8.486960 -2.192510 6.469440 -0.000001 177.902000 5.788000 -173.942000 -39.081100 -0.002282 -0.040193 -0.018954 0.099122 12.672500 -40.985400 0.000008 0.000006 -8.357540 9.456690 -67.448900 -11.754300 -0.000006 -0.000006 -0.010815 0.277296 -5.305870
0.000000 0.000000 0.000000 0.000000 0.000000 -0.000000 -0.592304 92.648500 2.440070 86.305600 -3.720070 4.891560 15.735700 0.000005 -0.000001 96.256100 86.644800 -102.611000 8.984550 -0.406207 -0.000000 -0.996310 1.215680 -12.695500 16.377300 -0.000001 -0.000001 0.549389 -1.373700 -5.191750 6.456720 -0.000001 -0.000000 2.561060 1.649070 -16.119000 12.994200 -0.242716 4.980390 -92.814700 9.241280 -72.978300 5.348090 -0.000007 -0.000001 -56.536300 1.659690 2.929370 24.328600 0.000019 0.000005 12.399900 26.194100 -26.477200 22.291600 -0.000001 0.000005 1.993790 4.864540 10.078000 12.994500 -0.242716 -4.980390 93.880500 -7.641840 -62.974500 -5.348130 -0.000001 -0.000004 -32.669100 -62.203000 -70.781300 -24.328900 0.000322 -0.000009 -0.609795 -3.076490 -11.198300 -22.291500 -0.000108 -0.000004 44.134200 5.500000 -6.533380 -2.192480 -6.469440 -0.000000 -171.789000 -6.937140 3.630500 39.081100 -0.000007 -0.000012 0.012747 -0.037491 18.779300 40.985400 -0.000006 -0.000013 -0.143293 10.212200 -70.938800 11.754300 -0.000000 0.000003 -0.002298 0.200015 -8.461630 -2.192510 6.469440 -0.000001 177.942000 5.772090 -173.936000 -39.081100 -0.002282 -0.040193 -0.019232 0.100971 12.598400 -40.985400 0.000008 0.000006 -8.429420 9.499010 -67.381400 -11.754300 -0.000006 -0.000006 -0.011189 0.279988 -5.195700
